<svg xmlns="http://www.w3.org/2000/svg" viewBox="0 0 1600 1520" width="1600" height="1520" style="background:#0F172A; font-family: -apple-system, BlinkMacSystemFont, 'Segoe UI', Roboto, sans-serif;">
  <defs>
    <filter id="shadow" x="-5%" y="-5%" width="110%" height="110%">
      <feDropShadow dx="0" dy="4" stdDeviation="6" flood-color="#000" flood-opacity="0.3"/>
    </filter>
    <linearGradient id="primaryGrad" x1="0%" y1="0%" x2="100%" y2="0%">
      <stop offset="0%" stop-color="#0284C7"/>
      <stop offset="100%" stop-color="#38BDF8"/>
    </linearGradient>
    <marker id="arrow" viewBox="0 0 10 10" refX="6" refY="5" markerWidth="6" markerHeight="6" orient="auto-start-reverse">
      <path d="M 0 1 L 8 5 L 0 9 z" fill="#38BDF8"/>
    </marker>
  </defs>

  <!-- TITLE BANNER -->
  <rect x="40" y="30" width="1520" height="70" rx="10" fill="#1E293B" stroke="#334155" stroke-width="1.5" filter="url(#shadow)"/>
  <text x="800" y="62" fill="#F8FAFC" font-size="20" font-weight="800" text-anchor="middle" letter-spacing="0.5">EARLYECHO (RECALLRADAR) SYSTEM ARCHITECTURE &amp; WORKFLOW PIPELINE</text>
  <text x="800" y="84" fill="#94A3B8" font-size="12" text-anchor="middle">Continuous Multi-Source Surveillance • Bayesian Defect Scoring • pgvector Grounded Intelligence • Incident Early Warning</text>

  <!-- ==================== TOP ARCHITECTURE CONTAINERS ==================== -->

  <!-- 1. USERS & CLIENTS -->
  <g transform="translate(40, 120)">
    <rect width="280" height="410" rx="10" fill="#0F172A" stroke="#38BDF8" stroke-width="2" filter="url(#shadow)"/>
    <rect width="280" height="32" rx="10" fill="#1E293B"/>
    <text x="15" y="22" fill="#38BDF8" font-size="12" font-weight="700">1. CLIENTS &amp; USERS (Vercel)</text>
    
    <!-- Safety Analyst & QA -->
    <rect x="15" y="45" width="115" height="60" rx="8" fill="#1E293B" stroke="#38BDF8"/>
    <text x="72" y="70" fill="#F8FAFC" font-size="11" font-weight="700" text-anchor="middle">Safety Analyst</text>
    <text x="72" y="88" fill="#94A3B8" font-size="9" text-anchor="middle">Dashboard Browser</text>

    <rect x="150" y="45" width="115" height="60" rx="8" fill="#1E293B" stroke="#F43F5E"/>
    <text x="207" y="70" fill="#F8FAFC" font-size="11" font-weight="700" text-anchor="middle">QA / Customer</text>
    <text x="207" y="88" fill="#94A3B8" font-size="9" text-anchor="middle">Review Submitter</text>

    <!-- Web 1 Dashboard -->
    <rect x="15" y="120" width="250" height="135" rx="8" fill="#1E293B" stroke="#0284C7"/>
    <text x="25" y="142" fill="#38BDF8" font-size="11" font-weight="700">Main Dashboard (apps/web)</text>
    <text x="25" y="162" fill="#CBD5E1" font-size="10">• Executive Overview (`/`)</text>
    <text x="25" y="179" fill="#CBD5E1" font-size="10">• Risk Queue Table (`/risk-queue`)</text>
    <text x="25" y="196" fill="#CBD5E1" font-size="10">• Product Investigation (`/products/[id]`)</text>
    <text x="25" y="213" fill="#CBD5E1" font-size="10">• Backtest Simulator (`/backtest`)</text>
    <text x="25" y="230" fill="#CBD5E1" font-size="10">• Pipeline Quality (`/data-quality`)</text>

    <!-- Web 2 Review Portal -->
    <rect x="15" y="270" width="250" height="120" rx="8" fill="#1E293B" stroke="#E11D48"/>
    <text x="25" y="292" fill="#F43F5E" font-size="11" font-weight="700">Customer Portal (apps/web2)</text>
    <text x="25" y="312" fill="#CBD5E1" font-size="10">• Direct Database Review Form</text>
    <text x="25" y="329" fill="#CBD5E1" font-size="10">• Presets: Fire, Shock, Praise</text>
    <text x="25" y="346" fill="#CBD5E1" font-size="10">• Live DB Record Confirmation</text>
    <text x="25" y="363" fill="#CBD5E1" font-size="10">• Real-Time Ticker (3.5s Poll)</text>
  </g>

  <!-- 2. INGESTION LAYER -->
  <g transform="translate(340, 120)">
    <rect width="280" height="410" rx="10" fill="#0F172A" stroke="#F59E0B" stroke-width="2" filter="url(#shadow)"/>
    <rect width="280" height="32" rx="10" fill="#1E293B"/>
    <text x="15" y="22" fill="#F59E0B" font-size="12" font-weight="700">2. INGESTION &amp; ADAPTERS</text>

    <rect x="15" y="45" width="250" height="48" rx="8" fill="#1E293B" stroke="#F59E0B"/>
    <text x="25" y="67" fill="#F8FAFC" font-size="11" font-weight="700">AmazonReviewsAdapter</text>
    <text x="25" y="83" fill="#94A3B8" font-size="9">Marketplace 2023 CSV Parser &amp; Normalizer</text>

    <rect x="15" y="105" width="250" height="48" rx="8" fill="#1E293B" stroke="#10B981"/>
    <text x="25" y="127" fill="#F8FAFC" font-size="11" font-weight="700">SupportTicketsAdapter</text>
    <text x="25" y="143" fill="#94A3B8" font-size="9">Generic Support &amp; Incident Ticket Stream</text>

    <rect x="15" y="165" width="250" height="48" rx="8" fill="#1E293B" stroke="#EF4444" stroke-dasharray="4,3"/>
    <text x="25" y="187" fill="#F8FAFC" font-size="11" font-weight="700">CPSC / SaferProducts Adapter</text>
    <text x="25" y="203" fill="#F87171" font-size="9">[Dashed: Polling Not Connected Live]</text>

    <rect x="15" y="225" width="250" height="85" rx="8" fill="#1E293B" stroke="#F59E0B"/>
    <text x="25" y="247" fill="#FCD34D" font-size="11" font-weight="700">DeduplicationManager</text>
    <text x="25" y="267" fill="#CBD5E1" font-size="10">• Hash Dedup: reviewerID + timestamp</text>
    <text x="25" y="284" fill="#CBD5E1" font-size="10">• Fuzzy Entity Resolution &amp; Matching</text>
    <text x="25" y="301" fill="#CBD5E1" font-size="10">• Dynamic Product Creation</text>

    <rect x="15" y="325" width="250" height="65" rx="8" fill="#1E293B" stroke="#64748B"/>
    <text x="25" y="347" fill="#E2E8F0" font-size="11" font-weight="700">CLI Ingestion Suite</text>
    <text x="25" y="365" fill="#94A3B8" font-size="9">• `scripts/ingest_amazon_csv.py`</text>
    <text x="25" y="380" fill="#94A3B8" font-size="9">• `scripts/ingest_support_tickets_csv.py`</text>
  </g>

  <!-- 3. FASTAPI REST API -->
  <g transform="translate(640, 120)">
    <rect width="320" height="410" rx="10" fill="#0F172A" stroke="#10B981" stroke-width="2" filter="url(#shadow)"/>
    <rect width="320" height="32" rx="10" fill="#1E293B"/>
    <text x="15" y="22" fill="#10B981" font-size="12" font-weight="700">3. REST API GATEWAY (Render Deploy)</text>

    <rect x="15" y="45" width="290" height="235" rx="8" fill="#1E293B" stroke="#10B981"/>
    <text x="25" y="68" fill="#6EE7B7" font-size="12" font-weight="700">FastAPI Modular Routers (`/api/v1/`)</text>
    <text x="25" y="90" fill="#CBD5E1" font-size="10">• &lt;tspan font-weight="bold" fill="#38BDF8"&gt;/overview&lt;/tspan&gt;: Summary counts, KPIs, Sentiment</text>
    <text x="25" y="108" fill="#CBD5E1" font-size="10">• &lt;tspan font-weight="bold" fill="#38BDF8"&gt;/risk-queue&lt;/tspan&gt;: Paginated Hazard Directory</text>
    <text x="25" y="126" fill="#CBD5E1" font-size="10">• &lt;tspan font-weight="bold" fill="#38BDF8"&gt;/products&lt;/tspan&gt;: Inspection, Timeline &amp; Evidence</text>
    <text x="25" y="144" fill="#CBD5E1" font-size="10">• &lt;tspan font-weight="bold" fill="#38BDF8"&gt;/reviews/submit&lt;/tspan&gt;: Real-time DB Ingest &amp; Score</text>
    <text x="25" y="162" fill="#CBD5E1" font-size="10">• &lt;tspan font-weight="bold" fill="#38BDF8"&gt;/alerts&lt;/tspan&gt;: Natural Language Rules &amp; Spikes</text>
    <text x="25" y="180" fill="#CBD5E1" font-size="10">• &lt;tspan font-weight="bold" fill="#38BDF8"&gt;/backtests&lt;/tspan&gt;: Lead-time Simulation &amp; Export</text>
    <text x="25" y="198" fill="#CBD5E1" font-size="10">• &lt;tspan font-weight="bold" fill="#38BDF8"&gt;/chat&lt;/tspan&gt;: SQL Grounded &amp; NIM AI Assistant</text>
    <text x="25" y="216" fill="#CBD5E1" font-size="10">• &lt;tspan font-weight="bold" fill="#38BDF8"&gt;/data-quality&lt;/tspan&gt;: Live Probes (DB, Vector, Redis)</text>
    <text x="25" y="234" fill="#CBD5E1" font-size="10">• &lt;tspan font-weight="bold" fill="#38BDF8"&gt;/trends&lt;/tspan&gt;: Defect cluster trajectory over time</text>
    <text x="25" y="252" fill="#CBD5E1" font-size="10">• &lt;tspan font-weight="bold" fill="#38BDF8"&gt;/system/status&lt;/tspan&gt;: DB Dialect &amp; Catalog Status</text>

    <rect x="15" y="295" width="290" height="50" rx="8" fill="#1E293B" stroke="#8B5CF6"/>
    <text x="25" y="316" fill="#C4B5FD" font-size="11" font-weight="700">Append-Only Audit Trail (`audit_log`)</text>
    <text x="25" y="334" fill="#94A3B8" font-size="9">Tracks RULE_CREATE, ALERT_DISPATCH, DATA_EXPORT</text>

    <rect x="15" y="355" width="290" height="40" rx="8" fill="#1E293B" stroke="#64748B"/>
    <text x="25" y="378" fill="#94A3B8" font-size="10">Pydantic V2 Validation • Dynamic CORS</text>
  </g>

  <!-- 4. ML ENGINES -->
  <g transform="translate(980, 120)">
    <rect width="280" height="410" rx="10" fill="#0F172A" stroke="#EC4899" stroke-width="2" filter="url(#shadow)"/>
    <rect width="280" height="32" rx="10" fill="#1E293B"/>
    <text x="15" y="22" fill="#EC4899" font-size="12" font-weight="700">4. ML DEFECT &amp; RISK LAYER</text>

    <rect x="15" y="45" width="250" height="55" rx="8" fill="#1E293B" stroke="#EC4899"/>
    <text x="25" y="67" fill="#F472B6" font-size="11" font-weight="700">SafetySignalDetector</text>
    <text x="25" y="85" fill="#CBD5E1" font-size="10">Multi-layer Lexicon: Fire, Burn, Shock, Injury</text>

    <rect x="15" y="110" width="250" height="55" rx="8" fill="#1E293B" stroke="#EC4899"/>
    <text x="25" y="132" fill="#F472B6" font-size="11" font-weight="700">Context Disambiguation</text>
    <text x="25" y="150" fill="#CBD5E1" font-size="10">`is_false_positive_context`: Filters idioms &amp; praise</text>

    <rect x="15" y="175" width="250" height="60" rx="8" fill="#1E293B" stroke="#EC4899"/>
    <text x="25" y="197" fill="#F472B6" font-size="11" font-weight="700">InterpretableRiskEngine</text>
    <text x="25" y="215" fill="#CBD5E1" font-size="10">0–100 Bayesian Score: Severity, Density, Trend</text>

    <rect x="15" y="245" width="250" height="55" rx="8" fill="#1E293B" stroke="#A855F7"/>
    <text x="25" y="267" fill="#C084FC" font-size="11" font-weight="700">EmbeddingGenerator</text>
    <text x="25" y="285" fill="#CBD5E1" font-size="10">SentenceTransformer (384-dim Dense Vector)</text>

    <rect x="15" y="310" width="250" height="55" rx="8" fill="#1E293B" stroke="#EC4899"/>
    <text x="25" y="332" fill="#F472B6" font-size="11" font-weight="700">DBSCAN HazardClusterer</text>
    <text x="25" y="350" fill="#CBD5E1" font-size="10">Hazard phrase grouping &amp; Lead-time Kaplan-Meier</text>
  </g>

  <!-- 5. INFRASTRUCTURE & DISPATCH -->
  <g transform="translate(1280, 120)">
    <rect width="280" height="410" rx="10" fill="#0F172A" stroke="#6366F1" stroke-width="2" filter="url(#shadow)"/>
    <rect width="280" height="32" rx="10" fill="#1E293B"/>
    <text x="15" y="22" fill="#6366F1" font-size="12" font-weight="700">5. PERSISTENCE &amp; INTEGRATIONS</text>

    <rect x="15" y="45" width="250" height="105" rx="8" fill="#1E293B" stroke="#6366F1"/>
    <text x="25" y="68" fill="#818CF8" font-size="11" font-weight="700">PostgreSQL 16 + pgvector</text>
    <text x="25" y="85" fill="#94A3B8" font-size="9">Hosted on Supabase (Pooler Port 6543)</text>
    <text x="25" y="103" fill="#CBD5E1" font-size="10">• products, reviews, recalls</text>
    <text x="25" y="120" fill="#CBD5E1" font-size="10">• safety_signals, review_signals</text>
    <text x="25" y="137" fill="#CBD5E1" font-size="10">• product_risk_snapshots, audit_log</text>

    <rect x="15" y="160" width="250" height="50" rx="8" fill="#1E293B" stroke="#10B981"/>
    <text x="25" y="180" fill="#6EE7B7" font-size="11" font-weight="700">Resend Email Dispatcher</text>
    <text x="25" y="198" fill="#94A3B8" font-size="9">Transactional HTML incident alert dispatch</text>

    <rect x="15" y="220" width="250" height="50" rx="8" fill="#1E293B" stroke="#06B6D4"/>
    <text x="25" y="240" fill="#67E8F9" font-size="11" font-weight="700">Slack / Webhook Channel</text>
    <text x="25" y="258" fill="#94A3B8" font-size="9">ALERT_WEBHOOK_URL • 5s Fail-Soft Timeout</text>

    <rect x="15" y="280" width="250" height="60" rx="8" fill="#1E293B" stroke="#EF4444" stroke-dasharray="4,3"/>
    <text x="25" y="300" fill="#FCA5A5" font-size="11" font-weight="700">Celery Workers &amp; Redis Broker</text>
    <text x="25" y="318" fill="#F87171" font-size="9">[Dashed: Worker Daemon Offline]</text>
    <text x="25" y="332" fill="#94A3B8" font-size="9">Upstash Redis connected • Celery tasks offline</text>

    <rect x="15" y="350" width="250" height="45" rx="8" fill="#1E293B" stroke="#84CC16"/>
    <text x="25" y="370" fill="#BEF264" font-size="11" font-weight="700">NVIDIA NIM API</text>
    <text x="25" y="386" fill="#94A3B8" font-size="9">meta/llama-3.2-11b-vision-instruct</text>
  </g>

  <!-- ==================== MIDDLE SECTION: WORKFLOW PIPELINE ==================== -->
  <g transform="translate(40, 550)">
    <rect width="1520" height="35" rx="6" fill="#1E293B" stroke="#38BDF8" stroke-width="1.5"/>
    <text x="15" y="23" fill="#38BDF8" font-size="13" font-weight="800" letter-spacing="0.5">END-TO-END DATA PROCESSING &amp; SURVEILLANCE PIPELINE (STEPS 1 – 11)</text>

    <!-- 11 Step Cards -->
    <g transform="translate(0, 50)">
      <rect x="0" width="125" height="55" rx="6" fill="#0F172A" stroke="#38BDF8" stroke-width="1.5"/>
      <text x="62" y="22" fill="#F8FAFC" font-size="10" font-weight="700" text-anchor="middle">1. Submit Review</text>
      <text x="62" y="40" fill="#94A3B8" font-size="9" text-anchor="middle">Web 2 / CSV / Ticket</text>

      <line x1="125" y1="27" x2="140" y2="27" stroke="#38BDF8" stroke-width="2" marker-end="url(#arrow)"/>

      <rect x="140" width="125" height="55" rx="6" fill="#0F172A" stroke="#F59E0B" stroke-width="1.5"/>
      <text x="202" y="22" fill="#F8FAFC" font-size="10" font-weight="700" text-anchor="middle">2. Dedup &amp; Norm</text>
      <text x="202" y="40" fill="#94A3B8" font-size="9" text-anchor="middle">Adapter + Entity Match</text>

      <line x1="265" y1="27" x2="280" y2="27" stroke="#38BDF8" stroke-width="2" marker-end="url(#arrow)"/>

      <rect x="280" width="125" height="55" rx="6" fill="#0F172A" stroke="#6366F1" stroke-width="1.5"/>
      <text x="342" y="22" fill="#F8FAFC" font-size="10" font-weight="700" text-anchor="middle">3. Persist in DB</text>
      <text x="342" y="40" fill="#94A3B8" font-size="9" text-anchor="middle">Saved to reviews table</text>

      <line x1="405" y1="27" x2="420" y2="27" stroke="#38BDF8" stroke-width="2" marker-end="url(#arrow)"/>

      <rect x="420" width="125" height="55" rx="6" fill="#0F172A" stroke="#EC4899" stroke-width="1.5"/>
      <text x="482" y="22" fill="#F8FAFC" font-size="10" font-weight="700" text-anchor="middle">4. Defect Signal</text>
      <text x="482" y="40" fill="#94A3B8" font-size="9" text-anchor="middle">Lexicon + Context</text>

      <line x1="545" y1="27" x2="560" y2="27" stroke="#38BDF8" stroke-width="2" marker-end="url(#arrow)"/>

      <rect x="560" width="125" height="55" rx="6" fill="#0F172A" stroke="#A855F7" stroke-width="1.5"/>
      <text x="622" y="22" fill="#F8FAFC" font-size="10" font-weight="700" text-anchor="middle">5. Vectorization</text>
      <text x="622" y="40" fill="#94A3B8" font-size="9" text-anchor="middle">384-dim Embedding</text>

      <line x1="685" y1="27" x2="700" y2="27" stroke="#38BDF8" stroke-width="2" marker-end="url(#arrow)"/>

      <rect x="700" width="125" height="55" rx="6" fill="#0F172A" stroke="#EC4899" stroke-width="1.5"/>
      <text x="762" y="22" fill="#F8FAFC" font-size="10" font-weight="700" text-anchor="middle">6. Score Recalc</text>
      <text x="762" y="40" fill="#94A3B8" font-size="9" text-anchor="middle">ProductRiskSnapshot</text>

      <line x1="825" y1="27" x2="840" y2="27" stroke="#38BDF8" stroke-width="2" marker-end="url(#arrow)"/>

      <rect x="840" width="125" height="55" rx="6" fill="#0F172A" stroke="#38BDF8" stroke-width="1.5"/>
      <text x="902" y="22" fill="#F8FAFC" font-size="10" font-weight="700" text-anchor="middle">7. UI Live Poll</text>
      <text x="902" y="40" fill="#94A3B8" font-size="9" text-anchor="middle">Dashboard syncs</text>

      <line x1="965" y1="27" x2="980" y2="27" stroke="#38BDF8" stroke-width="2" marker-end="url(#arrow)"/>

      <rect x="980" width="125" height="55" rx="6" fill="#0F172A" stroke="#F59E0B" stroke-width="1.5"/>
      <text x="1042" y="22" fill="#F8FAFC" font-size="10" font-weight="700" text-anchor="middle">8. Rule Match</text>
      <text x="1042" y="40" fill="#94A3B8" font-size="9" text-anchor="middle">Spike &amp; Threshold</text>

      <line x1="1105" y1="27" x2="1120" y2="27" stroke="#38BDF8" stroke-width="2" marker-end="url(#arrow)"/>

      <rect x="1120" width="125" height="55" rx="6" fill="#0F172A" stroke="#10B981" stroke-width="1.5"/>
      <text x="1182" y="22" fill="#F8FAFC" font-size="10" font-weight="700" text-anchor="middle">9. Dispatch</text>
      <text x="1182" y="40" fill="#94A3B8" font-size="9" text-anchor="middle">Resend Email + Slack</text>

      <line x1="1245" y1="27" x2="1260" y2="27" stroke="#38BDF8" stroke-width="2" marker-end="url(#arrow)"/>

      <rect x="1260" width="125" height="55" rx="6" fill="#0F172A" stroke="#38BDF8" stroke-width="1.5"/>
      <text x="1322" y="22" fill="#F8FAFC" font-size="10" font-weight="700" text-anchor="middle">10. Analyst Chat</text>
      <text x="1322" y="40" fill="#94A3B8" font-size="9" text-anchor="middle">Question in `/ask`</text>

      <line x1="1385" y1="27" x2="1400" y2="27" stroke="#38BDF8" stroke-width="2" marker-end="url(#arrow)"/>

      <rect x="1400" width="120" height="55" rx="6" fill="#0F172A" stroke="#84CC16" stroke-width="1.5"/>
      <text x="1460" y="22" fill="#F8FAFC" font-size="10" font-weight="700" text-anchor="middle">11. Grounded RAG</text>
      <text x="1460" y="40" fill="#94A3B8" font-size="9" text-anchor="middle">Cited Records + Table</text>
    </g>
  </g>

  <!-- ==================== BOTTOM SECTION: REQUIREMENTS TABLE ==================== -->
  <g transform="translate(40, 680)">
    <rect width="1520" height="800" rx="8" fill="#1E293B" stroke="#38BDF8" stroke-width="1.5"/>
    <text x="15" y="24" fill="#38BDF8" font-size="13" font-weight="800">REQUIREMENTS COMPLIANCE MATRIX (VERIFIED AGAINST ACTIVE SOURCE CODE)</text>

    <!-- Table Header -->
    <g transform="translate(15, 35)">
      <rect x="0" width="40" height="24" fill="#334155" stroke="#475569"/>
      <text x="20" y="16" fill="#F8FAFC" font-size="10" font-weight="700" text-anchor="middle">ID</text>

      <rect x="40" width="370" height="24" fill="#334155" stroke="#475569"/>
      <text x="50" y="16" fill="#F8FAFC" font-size="10" font-weight="700">Requirement Specification</text>

      <rect x="410" width="80" height="24" fill="#334155" stroke="#475569"/>
      <text x="450" y="16" fill="#F8FAFC" font-size="10" font-weight="700" text-anchor="middle">Status</text>

      <rect x="490" width="1000" height="24" fill="#334155" stroke="#475569"/>
      <text x="500" y="16" fill="#F8FAFC" font-size="10" font-weight="700">Concrete Code &amp; Test Verification Evidence</text>
    </g>

    <!-- 25 Table Rows -->
    <g transform="translate(15, 59)" font-size="9.5">
      <!-- F1 -->
      <rect y="0" width="40" height="24" fill="#0F172A" stroke="#334155"/><text x="20" y="16" fill="#F8FAFC" text-anchor="middle">F1</text>
      <rect x="40" y="0" width="370" height="24" fill="#0F172A" stroke="#334155"/><text x="50" y="16" fill="#CBD5E1">Ingest feedback from CSV or adapters, normalized and deduped</text>
      <rect x="410" y="0" width="80" height="24" fill="#064E3B" stroke="#334155"/><text x="450" y="16" fill="#6EE7B7" font-weight="700" text-anchor="middle">🟢 Met</text>
      <rect x="490" y="0" width="1000" height="24" fill="#0F172A" stroke="#334155"/><text x="500" y="16" fill="#CBD5E1">adapters.py (Amazon, SupportTickets, CPSC), dedup.py (DeduplicationManager), test_adapters.py</text>

      <!-- F2 -->
      <rect y="24" width="40" height="24" fill="#1E293B" stroke="#334155"/><text x="20" y="40" fill="#F8FAFC" text-anchor="middle">F2</text>
      <rect x="40" y="24" width="370" height="24" fill="#1E293B" stroke="#334155"/><text x="50" y="40" fill="#CBD5E1">Detect defect signals with context checks</text>
      <rect x="410" y="24" width="80" height="24" fill="#064E3B" stroke="#334155"/><text x="450" y="40" fill="#6EE7B7" font-weight="700" text-anchor="middle">🟢 Met</text>
      <rect x="490" y="24" width="1000" height="24" fill="#1E293B" stroke="#334155"/><text x="500" y="40" fill="#CBD5E1">detector.py, context.py (strips 'burnt toast', 'audio bleeding', 4★ praise), test_safety_detector.py, test_false_alarms.py</text>

      <!-- F3 -->
      <rect y="48" width="40" height="24" fill="#0F172A" stroke="#334155"/><text x="20" y="64" fill="#F8FAFC" text-anchor="middle">F3</text>
      <rect x="40" y="48" width="370" height="24" fill="#0F172A" stroke="#334155"/><text x="50" y="64" fill="#CBD5E1">Compute a 0–100 hazard score per product from its own reviews</text>
      <rect x="410" y="48" width="80" height="24" fill="#064E3B" stroke="#334155"/><text x="450" y="64" fill="#6EE7B7" font-weight="700" text-anchor="middle">🟢 Met</text>
      <rect x="490" y="48" width="1000" height="24" fill="#0F172A" stroke="#334155"/><text x="500" y="64" fill="#CBD5E1">risk/engine.py (InterpretableRiskEngine), products.py:74, reviews.py:128, test_critical_scenario.py</text>

      <!-- F4 -->
      <rect y="72" width="40" height="24" fill="#1E293B" stroke="#334155"/><text x="20" y="88" fill="#F8FAFC" text-anchor="middle">F4</text>
      <rect x="40" y="72" width="370" height="24" fill="#1E293B" stroke="#334155"/><text x="50" y="88" fill="#CBD5E1">Estimate lead time versus official recall</text>
      <rect x="410" y="72" width="80" height="24" fill="#064E3B" stroke="#334155"/><text x="450" y="88" fill="#6EE7B7" font-weight="700" text-anchor="middle">🟢 Met</text>
      <rect x="490" y="72" width="1000" height="24" fill="#1E293B" stroke="#334155"/><text x="500" y="88" fill="#CBD5E1">products.py:154, risk_queue.py:85; returns None ('N/A') when no recall; test_critical_scenario.py (7.4 wks)</text>

      <!-- F5 -->
      <rect y="96" width="40" height="24" fill="#0F172A" stroke="#334155"/><text x="20" y="112" fill="#F8FAFC" text-anchor="middle">F5</text>
      <rect x="40" y="96" width="370" height="24" fill="#0F172A" stroke="#334155"/><text x="50" y="112" fill="#CBD5E1">Show cited evidence for every score</text>
      <rect x="410" y="96" width="80" height="24" fill="#064E3B" stroke="#334155"/><text x="450" y="112" fill="#6EE7B7" font-weight="700" text-anchor="middle">🟢 Met</text>
      <rect x="490" y="96" width="1000" height="24" fill="#0F172A" stroke="#334155"/><text x="500" y="112" fill="#CBD5E1">products.py:137 (verbatim review text, stars, date, danger phrases), test_grounding.py</text>

      <!-- F6 -->
      <rect y="120" width="40" height="24" fill="#1E293B" stroke="#334155"/><text x="20" y="136" fill="#F8FAFC" text-anchor="middle">F6</text>
      <rect x="40" y="120" width="370" height="24" fill="#1E293B" stroke="#334155"/><text x="50" y="136" fill="#CBD5E1">Ranked risk queue with filter, sort and pagination</text>
      <rect x="410" y="120" width="80" height="24" fill="#064E3B" stroke="#334155"/><text x="450" y="136" fill="#6EE7B7" font-weight="700" text-anchor="middle">🟢 Met</text>
      <rect x="490" y="120" width="1000" height="24" fill="#1E293B" stroke="#334155"/><text x="500" y="136" fill="#CBD5E1">risk_queue.py (`page`, `page_size`, `min_risk`, `category`, `sort_by`), verify_all.py Step 5 (10 of 186 models)</text>

      <!-- F7 -->
      <rect y="144" width="40" height="24" fill="#0F172A" stroke="#334155"/><text x="20" y="160" fill="#F8FAFC" text-anchor="middle">F7</text>
      <rect x="40" y="144" width="370" height="24" fill="#0F172A" stroke="#334155"/><text x="50" y="160" fill="#CBD5E1">Plain-English alert rules with real email &amp; webhook dispatch</text>
      <rect x="410" y="144" width="80" height="24" fill="#064E3B" stroke="#334155"/><text x="450" y="160" fill="#6EE7B7" font-weight="700" text-anchor="middle">🟢 Met</text>
      <rect x="490" y="144" width="1000" height="24" fill="#0F172A" stroke="#334155"/><text x="500" y="160" fill="#CBD5E1">rule_parser.py, engine.py (evaluate_defect_spike), resend_dispatcher.py (Resend + Slack), test_spike_detection.py</text>

      <!-- F8 -->
      <rect y="168" width="40" height="24" fill="#1E293B" stroke="#334155"/><text x="20" y="184" fill="#F8FAFC" text-anchor="middle">F8</text>
      <rect x="40" y="168" width="370" height="24" fill="#1E293B" stroke="#334155"/><text x="50" y="184" fill="#CBD5E1">Backtest and threshold tuning with CSV export</text>
      <rect x="410" y="168" width="80" height="24" fill="#064E3B" stroke="#334155"/><text x="450" y="184" fill="#6EE7B7" font-weight="700" text-anchor="middle">🟢 Met</text>
      <rect x="490" y="168" width="1000" height="24" fill="#1E293B" stroke="#334155"/><text x="500" y="184" fill="#CBD5E1">backtests.py (/summary, /simulate, /export), apps/web/app/backtest/page.tsx, test_audit_log_on_csv_export</text>

      <!-- F9 -->
      <rect y="192" width="40" height="24" fill="#0F172A" stroke="#334155"/><text x="20" y="208" fill="#F8FAFC" text-anchor="middle">F9</text>
      <rect x="40" y="192" width="370" height="24" fill="#0F172A" stroke="#334155"/><text x="50" y="208" fill="#CBD5E1">Ask assistant with RAG mode and AI Chat mode</text>
      <rect x="410" y="192" width="80" height="24" fill="#064E3B" stroke="#334155"/><text x="450" y="208" fill="#6EE7B7" font-weight="700" text-anchor="middle">🟢 Met</text>
      <rect x="490" y="192" width="1000" height="24" fill="#0F172A" stroke="#334155"/><text x="500" y="208" fill="#CBD5E1">chat.py (SQL grounded RAG + NVIDIA NIM Llama 3.2), rag.py, explanation.py, test_ask_endpoint_hallucination_refusal</text>

      <!-- F10 -->
      <rect y="216" width="40" height="24" fill="#1E293B" stroke="#334155"/><text x="20" y="232" fill="#F8FAFC" text-anchor="middle">F10</text>
      <rect x="40" y="216" width="370" height="24" fill="#1E293B" stroke="#334155"/><text x="50" y="232" fill="#CBD5E1">Data quality and pipeline monitoring</text>
      <rect x="410" y="216" width="80" height="24" fill="#064E3B" stroke="#334155"/><text x="450" y="232" fill="#6EE7B7" font-weight="700" text-anchor="middle">🟢 Met</text>
      <rect x="490" y="216" width="1000" height="24" fill="#1E293B" stroke="#334155"/><text x="500" y="232" fill="#CBD5E1">data_quality.py: live DB probe (SELECT 1), real embedding % (0.0%), live Redis/Celery broker probe, data-quality page</text>

      <!-- F11 -->
      <rect y="240" width="40" height="24" fill="#0F172A" stroke="#334155"/><text x="20" y="256" fill="#F8FAFC" text-anchor="middle">F11</text>
      <rect x="40" y="240" width="370" height="24" fill="#0F172A" stroke="#334155"/><text x="50" y="256" fill="#CBD5E1">Live review submission that updates the dashboard</text>
      <rect x="410" y="240" width="80" height="24" fill="#064E3B" stroke="#334155"/><text x="450" y="256" fill="#6EE7B7" font-weight="700" text-anchor="middle">🟢 Met</text>
      <rect x="490" y="240" width="1000" height="24" fill="#0F172A" stroke="#334155"/><text x="500" y="256" fill="#CBD5E1">reviews.py (POST /submit), apps/web2 presets, live polling feed, persistent real-time telemetry sync</text>

      <!-- N1 -->
      <rect y="264" width="40" height="24" fill="#1E293B" stroke="#334155"/><text x="20" y="280" fill="#F8FAFC" text-anchor="middle">N1</text>
      <rect x="40" y="264" width="370" height="24" fill="#1E293B" stroke="#334155"/><text x="50" y="280" fill="#CBD5E1">Low latency: dashboard &lt; 500 ms, chat &lt; 5 s</text>
      <rect x="410" y="264" width="80" height="24" fill="#78350F" stroke="#334155"/><text x="450" y="280" fill="#FCD34D" font-weight="700" text-anchor="middle">🟡 Partial</text>
      <rect x="490" y="264" width="1000" height="24" fill="#1E293B" stroke="#334155"/><text x="500" y="280" fill="#CBD5E1">Remote Supabase in Seoul adds 2-5s cross-continent RTT on cold queries. Fix: Add Redis caching layer (TTL 30s).</text>

      <!-- N2 -->
      <rect y="288" width="40" height="24" fill="#0F172A" stroke="#334155"/><text x="20" y="304" fill="#F8FAFC" text-anchor="middle">N2</text>
      <rect x="40" y="288" width="370" height="24" fill="#0F172A" stroke="#334155"/><text x="50" y="304" fill="#CBD5E1">Consistency across pages without manual reload</text>
      <rect x="410" y="288" width="80" height="24" fill="#064E3B" stroke="#334155"/><text x="450" y="304" fill="#6EE7B7" font-weight="700" text-anchor="middle">🟢 Met</text>
      <rect x="490" y="288" width="1000" height="24" fill="#0F172A" stroke="#334155"/><text x="500" y="304" fill="#CBD5E1">verify_all.py verifies cross-endpoint match (186 products, 4060 reviews) across system/status and overview/summary</text>

      <!-- N3 -->
      <rect y="312" width="40" height="24" fill="#1E293B" stroke="#334155"/><text x="20" y="328" fill="#F8FAFC" text-anchor="middle">N3</text>
      <rect x="40" y="312" width="370" height="24" fill="#1E293B" stroke="#334155"/><text x="50" y="328" fill="#CBD5E1">Accuracy and low false alarms</text>
      <rect x="410" y="312" width="80" height="24" fill="#064E3B" stroke="#334155"/><text x="450" y="328" fill="#6EE7B7" font-weight="700" text-anchor="middle">🟢 Met</text>
      <rect x="490" y="312" width="1000" height="24" fill="#1E293B" stroke="#334155"/><text x="500" y="328" fill="#CBD5E1">test_false_alarms.py: 0 false alarms on control non-safety complaints; context.py acoustic term filtering</text>

      <!-- N4 -->
      <rect y="336" width="40" height="24" fill="#0F172A" stroke="#334155"/><text x="20" y="352" fill="#F8FAFC" text-anchor="middle">N4</text>
      <rect x="40" y="336" width="370" height="24" fill="#0F172A" stroke="#334155"/><text x="50" y="352" fill="#CBD5E1">Explainability: every flag points to exact phrase</text>
      <rect x="410" y="336" width="80" height="24" fill="#064E3B" stroke="#334155"/><text x="450" y="352" fill="#6EE7B7" font-weight="700" text-anchor="middle">🟢 Met</text>
      <rect x="490" y="336" width="1000" height="24" fill="#0F172A" stroke="#334155"/><text x="500" y="352" fill="#CBD5E1">SafetySignal.phrase stores exact matched string ('caught fire', 'burned my hand'); test_safety_detector.py</text>

      <!-- N5 -->
      <rect y="360" width="40" height="24" fill="#1E293B" stroke="#334155"/><text x="20" y="376" fill="#F8FAFC" text-anchor="middle">N5</text>
      <rect x="40" y="360" width="370" height="24" fill="#1E293B" stroke="#334155"/><text x="50" y="376" fill="#CBD5E1">Grounding: RAG answers cite retrieved records</text>
      <rect x="410" y="360" width="80" height="24" fill="#064E3B" stroke="#334155"/><text x="450" y="376" fill="#6EE7B7" font-weight="700" text-anchor="middle">🟢 Met</text>
      <rect x="490" y="360" width="1000" height="24" fill="#1E293B" stroke="#334155"/><text x="500" y="376" fill="#CBD5E1">explanation.py: citations array maps to [EXT-XXXX] database records; test_grounding.py verifies refusal on missing records</text>

      <!-- N6 -->
      <rect y="384" width="40" height="24" fill="#0F172A" stroke="#334155"/><text x="20" y="400" fill="#F8FAFC" text-anchor="middle">N6</text>
      <rect x="40" y="384" width="370" height="24" fill="#0F172A" stroke="#334155"/><text x="50" y="400" fill="#CBD5E1">Temporal integrity: backtests never use future data</text>
      <rect x="410" y="384" width="80" height="24" fill="#064E3B" stroke="#334155"/><text x="450" y="400" fill="#6EE7B7" font-weight="700" text-anchor="middle">🟢 Met</text>
      <rect x="490" y="384" width="1000" height="24" fill="#0F172A" stroke="#334155"/><text x="500" y="400" fill="#CBD5E1">test_temporal_leakage.py: strictly limits review_date &lt;= as_of_date; verified zero lookahead bias</text>

      <!-- N7 -->
      <rect y="408" width="40" height="24" fill="#1E293B" stroke="#334155"/><text x="20" y="424" fill="#F8FAFC" text-anchor="middle">N7</text>
      <rect x="40" y="408" width="370" height="24" fill="#1E293B" stroke="#334155"/><text x="50" y="424" fill="#CBD5E1">Reliability: fails loudly, no silent fallback to empty DB</text>
      <rect x="410" y="408" width="80" height="24" fill="#064E3B" stroke="#334155"/><text x="450" y="424" fill="#6EE7B7" font-weight="700" text-anchor="middle">🟢 Met</text>
      <rect x="490" y="408" width="1000" height="24" fill="#1E293B" stroke="#334155"/><text x="500" y="424" fill="#CBD5E1">session.py: pool_pre_ping=True, connect_timeout=15; exceptions raise transparently rather than returning dummy data</text>

      <!-- N8 -->
      <rect y="432" width="40" height="24" fill="#0F172A" stroke="#334155"/><text x="20" y="448" fill="#F8FAFC" text-anchor="middle">N8</text>
      <rect x="40" y="432" width="370" height="24" fill="#0F172A" stroke="#334155"/><text x="50" y="448" fill="#CBD5E1">Scalability: pagination, async workers, indexed vector search</text>
      <rect x="410" y="432" width="80" height="24" fill="#78350F" stroke="#334155"/><text x="450" y="448" fill="#FCD34D" font-weight="700" text-anchor="middle">🟡 Partial</text>
      <rect x="490" y="432" width="1000" height="24" fill="#0F172A" stroke="#334155"/><text x="500" y="448" fill="#CBD5E1">pgvector HNSW index and pagination active. Celery app &amp; Redis broker connected but worker offline. Fix: Daemonize worker.</text>

      <!-- N9 -->
      <rect y="456" width="40" height="24" fill="#1E293B" stroke="#334155"/><text x="20" y="472" fill="#F8FAFC" text-anchor="middle">N9</text>
      <rect x="40" y="456" width="370" height="24" fill="#1E293B" stroke="#334155"/><text x="50" y="472" fill="#CBD5E1">Security: no secrets in repo, CORS restricted, input validation</text>
      <rect x="410" y="456" width="80" height="24" fill="#78350F" stroke="#334155"/><text x="450" y="472" fill="#FCD34D" font-weight="700" text-anchor="middle">🟡 Partial</text>
      <rect x="490" y="456" width="1000" height="24" fill="#1E293B" stroke="#334155"/><text x="500" y="472" fill="#CBD5E1">Pydantic models validate all inputs, .env gitignored. Permissive allow_origins=['*'] in main.py:25. Fix: restrict origins in prod.</text>

      <!-- N10 -->
      <rect y="480" width="40" height="24" fill="#0F172A" stroke="#334155"/><text x="20" y="496" fill="#F8FAFC" text-anchor="middle">N10</text>
      <rect x="40" y="480" width="370" height="24" fill="#0F172A" stroke="#334155"/><text x="50" y="496" fill="#CBD5E1">Maintainability and testability: adapters, verify scripts</text>
      <rect x="410" y="480" width="80" height="24" fill="#064E3B" stroke="#334155"/><text x="450" y="496" fill="#6EE7B7" font-weight="700" text-anchor="middle">🟢 Met</text>
      <rect x="490" y="480" width="1000" height="24" fill="#0F172A" stroke="#334155"/><text x="500" y="496" fill="#CBD5E1">Unified BaseAdapter protocol pattern, 22 automated tests in run_all_tests.py with 100% pass rate</text>

      <!-- N11 -->
      <rect y="504" width="40" height="24" fill="#1E293B" stroke="#334155"/><text x="20" y="520" fill="#F8FAFC" text-anchor="middle">N11</text>
      <rect x="40" y="504" width="370" height="24" fill="#1E293B" stroke="#334155"/><text x="50" y="520" fill="#CBD5E1">Usability: loading and empty/error states, responsive</text>
      <rect x="410" y="504" width="80" height="24" fill="#064E3B" stroke="#334155"/><text x="450" y="520" fill="#6EE7B7" font-weight="700" text-anchor="middle">🟢 Met</text>
      <rect x="490" y="504" width="1000" height="24" fill="#1E293B" stroke="#334155"/><text x="500" y="520" fill="#CBD5E1">Tailwind CSS responsive design, skeleton cards, and explicit empty filter alerts ('Not enough data yet')</text>

      <!-- N12 -->
      <rect y="528" width="40" height="24" fill="#0F172A" stroke="#334155"/><text x="20" y="544" fill="#F8FAFC" text-anchor="middle">N12</text>
      <rect x="40" y="528" width="370" height="24" fill="#0F172A" stroke="#334155"/><text x="50" y="544" fill="#CBD5E1">Observability: logs and health endpoint</text>
      <rect x="410" y="528" width="80" height="24" fill="#064E3B" stroke="#334155"/><text x="450" y="544" fill="#6EE7B7" font-weight="700" text-anchor="middle">🟢 Met</text>
      <rect x="490" y="528" width="1000" height="24" fill="#0F172A" stroke="#334155"/><text x="500" y="544" fill="#CBD5E1">/health, /api/v1/system/status, /data-quality live probes, audit_log table tracking rule, alert, and export telemetry</text>

      <!-- N13 -->
      <rect y="552" width="40" height="24" fill="#1E293B" stroke="#334155"/><text x="20" y="568" fill="#F8FAFC" text-anchor="middle">N13</text>
      <rect x="40" y="552" width="370" height="24" fill="#1E293B" stroke="#334155"/><text x="50" y="568" fill="#CBD5E1">Reproducibility: seed scripts rebuild identical DB</text>
      <rect x="410" y="552" width="80" height="24" fill="#064E3B" stroke="#334155"/><text x="450" y="568" fill="#6EE7B7" font-weight="700" text-anchor="middle">🟢 Met</text>
      <rect x="490" y="552" width="1000" height="24" fill="#1E293B" stroke="#334155"/><text x="500" y="568" fill="#CBD5E1">scripts/seed_db.py and scripts/ingest_amazon_csv.py deterministic generation; clean idempotent re-runs</text>

      <!-- N14 -->
      <rect y="576" width="40" height="24" fill="#0F172A" stroke="#334155"/><text x="20" y="592" fill="#F8FAFC" text-anchor="middle">N14</text>
      <rect x="40" y="576" width="370" height="24" fill="#0F172A" stroke="#334155"/><text x="50" y="592" fill="#CBD5E1">Data privacy and isolation (multi-tenancy)</text>
      <rect x="410" y="576" width="80" height="24" fill="#7F1D1D" stroke="#334155"/><text x="450" y="592" fill="#FCA5A5" font-weight="700" text-anchor="middle">🔴 Not Met</text>
      <rect x="490" y="576" width="1000" height="24" fill="#0F172A" stroke="#334155"/><text x="500" y="592" fill="#CBD5E1">Single-tenant schema; multi-organization partitioning is planned for enterprise roadmap. Fix: add org_id &amp; tenant claim.</text>

      <!-- Summary Banner inside Table -->
      <rect y="608" width="1490" height="32" rx="6" fill="#0F172A" stroke="#38BDF8" stroke-width="1.5"/>
      <text x="745" y="628" fill="#38BDF8" font-size="11" font-weight="700" text-anchor="middle">COMPLIANCE SCORE: 🟢 Met: 21 / 25 (84%) | 🟡 Partial: 3 / 25 (12%) | 🔴 Not Met: 1 / 25 (4%) • TOP GAPS: Multi-tenancy (N14), Celery daemon (N8), Latency (N1)</text>
    </g>
  </g>
</svg>
